<svg width="80" height="32" viewBox="0 0 80 32" fill="none" xmlns="http://www.w3.org/2000/svg">
<path d="M22 3.76666C18.4407 3.76666 16.3313 6.26694 16.0237 7.24567C16.0173 7.26612 15.984 7.26577 15.9784 7.24506C15.716 6.27113 14.306 3.76666 10 3.76666C5.89335 3.76666 2.66669 6.99333 2.66669 11.1C2.66669 16.14 7.20002 20.2467 14.0667 26.4867L15.8654 28.1117C15.9418 28.1807 16.058 28.1805 16.1341 28.1112L17.9334 26.4733C24.8 20.2467 29.3334 16.14 29.3334 11.1C29.3334 6.99333 26.1067 3.76666 22 3.76666ZM16.1334 24.5C16.0597 24.5736 15.9403 24.5736 15.8667 24.5C9.52002 18.7533 5.33335 14.9533 5.33335 11.1C5.33335 8.43333 7.33335 6.43333 10 6.43333C14.0855 6.43333 15.3105 9.27942 15.9812 11.2771C15.9873 11.2953 16.0127 11.2953 16.0189 11.2771C16.6918 9.27945 18.0374 6.43333 22 6.43333C24.6667 6.43333 26.6667 8.43333 26.6667 11.1C26.6667 14.9533 22.48 18.7533 16.1334 24.5Z" fill="#BABAB8"/>
<mask id="path-2-inside-1_1_1860" fill="white">
<rect x="48" width="32" height="32" rx="0.6"/>
</mask>
<rect x="48" width="32" height="32" rx="0.6" fill="#ECECEA"/>
<rect x="48" width="32" height="32" rx="0.6" stroke="#CECECE" stroke-width="1.6" mask="url(#path-2-inside-1_1_1860)"/>
<path d="M56.1 14C56.0448 14 56 14.0448 56 14.1V17.9C56 17.9552 56.0448 18 56.1 18H59.9C59.9552 18 60 17.9552 60 17.9V14.1C60 14.0448 59.9552 14 59.9 14H56.1Z" fill="#FF5921"/>
<path d="M62.1 14C62.0448 14 62 14.0448 62 14.1V17.9C62 17.9552 62.0448 18 62.1 18H65.9C65.9552 18 66 17.9552 66 17.9V14.1C66 14.0448 65.9552 14 65.9 14H62.1Z" fill="#FF5921"/>
<path d="M68.1 14C68.0448 14 68 14.0448 68 14.1V17.9C68 17.9552 68.0448 18 68.1 18H71.9C71.9552 18 72 17.9552 72 17.9V14.1C72 14.0448 71.9552 14 71.9 14H68.1Z" fill="#FF5921"/>
</svg>
